<?xml version="1.0" encoding="UTF-8"?>
<svg id="Ebene_1" data-name="Ebene 1" xmlns="http://www.w3.org/2000/svg" version="1.1" viewBox="0 0 169.8000031 55.4000015">
  <defs>
    <style>
      .cls-1 {
        fill: #68a3c2;
      }

      .cls-1, .cls-2, .cls-3, .cls-4 {
        stroke-width: 0px;
      }

      .cls-2 {
        fill: #a6c7db;
      }

      .cls-3 {
        fill: #c4d9e8;
      }

      .cls-4 {
        fill: #0e447c;
      }
    </style>
  </defs>
  <g>
    <path class="cls-4" d="M38.4000015,40.8999869c-2.5,0-4.0999985-.4000015-5.2999992-1.2000008l1.0999985-3.2999992c.5999985.4000015,1.7999992.9000015,3.2000008.9000015,1.7000008,0,2.7000008-1,2.7000008-2.4000015,0-1.2999992-.7999992-2.0999985-2.7999992-3-3.0999985-1.3999996-4-3.6000004-4-5.5,0-3.3999996,2.4000015-6.2000008,6.4000015-6.2000008,2.2000008,0,3.7000008.5,4.7000008,1.2000008l-1,2.8999996c-.7000008-.3999996-1.7999992-.8999996-3-.8999996-1.5999985,0-2.4000015.8999996-2.4000015,2.2999992,0,1.5,1,2.2000008,2.7000008,2.8999996,3.9000015,1.7999992,4.4000015,3.8999996,4.4000015,5.8999996-.0000076,3.7000008-2.8000069,6.4000015-6.7000046,6.4000015"/>
    <path class="cls-4" d="M53.2000008,33.0999838l-.5999985-.0999985v7.5999985h-4.5999985v-19.1999989c1.4000015-.7000008,3.5999985-1.2000008,6.0999985-1.2000008,5.5999985,0,7.7000008,2.7999992,7.7000008,6.3999996-.0000038,3.8000011-2.6000023,7.1000023-8.6000023,6.5M54,22.899985c-.5999985,0-1.2000008.1000004-1.4000015.2000008v7.1999989h.5999985c3,.1000004,4.0999985-1.1000004,4.0999985-3.7000008.0000038-2.4999981-.8999939-3.6999989-3.2999954-3.6999989"/>
    <path class="cls-4" d="M73.1999969,40.5999838l-1.1999969-4.2999992h-6l-1.3000031,4.2999992h-4.2000008l6.5000038-20.1000004h4.5999985l6.4000015,20.1000004h-4.8000031ZM69.5,27.0999857c-.4000015-1.3999996-.5-2.3999996-.5-2.3999996h0s-.0999985,1-.5,2.3999996l-1.9000015,6.4999981h4.6999969l-1.7999954-6.4999981Z"/>
    <polygon class="cls-4" points="80 40.5999838 80 20.5999857 90.3000031 20.5999857 90.3000031 23.6999861 84.8000031 23.6999861 84.8000031 28.7999846 89.5999985 28.7999846 89.5999985 31.899985 84.8000031 31.899985 84.8000031 37.3999869 90.3000031 37.3999869 90.3000031 40.5999838 80 40.5999838"/>
    <polygon class="cls-4" points="100.4000015 23.6999861 100.4000015 40.5999838 95.5999985 40.5999838 95.5999985 23.6999861 92.0999985 23.6999861 92.0999985 20.5999857 103.8000031 20.5999857 103.8000031 23.6999861 100.4000015 23.6999861"/>
    <polygon class="cls-4" points="106.3000031 40.5999838 106.3000031 20.5999857 116.5999985 20.5999857 116.5999985 23.6999861 111.0999985 23.6999861 111.0999985 28.7999846 115.9000015 28.7999846 115.9000015 31.899985 111.0999985 31.899985 111.0999985 37.3999869 116.5999985 37.3999869 116.5999985 40.5999838 106.3000031 40.5999838"/>
    <path class="cls-4" d="M129.1999969,40.5999838l-4.8000031-8.8999996h-.0999985v8.8999996h-4.6999969v-19.1999989c1.5-.7000008,3.5999985-1.2000008,6-1.2000008,5.4000015,0,7.9000015,2.3999996,7.9000015,6.3000011,0,2.6000004-2,4.7000008-4.6000061,5.1000004v.1000004l5.3000031,8.8999977h-5ZM125.6999969,22.899985c-.5999985,0-1,.1000004-1.4000015.2999992v7.3999996c.1999969.1000004.5999985.1000004,1,.1000004,2.5,0,3.5999985-1.5,3.5999985-3.8999996.1000061-2.5999985-.6999969-3.8999996-3.1999969-3.8999996"/>
  </g>
  <g>
    <path class="cls-4" d="M34.7000008,53.9999854c-.7999992,0-1.2999992-.0999985-1.7000008-.4000015l.2999992-.9000015c.2000008.2000008.5999985.2999992,1.0999985.2999992.7000008,0,1.0999985-.4000015,1.0999985-1.0999985,0-.5-.2999992-.7999992-1.0999985-1.0999985-1.0999985-.5-1.4000015-1.2000008-1.4000015-1.9000015,0-1.0999985.7999992-2,2-2,.7000008,0,1.2000008.2000008,1.5.4000015l-.2999992.7999992c-.2000008-.0999985-.5999985-.2999992-1.0999985-.2999992-.5999985,0-1,.4000015-1,1s.4000015.9000015,1,1.0999985c1.2999992.5999985,1.5,1.2999992,1.5,2,.3000031,1.2000008-.5999985,2.1000023-1.8999977,2.1000023"/>
    <path class="cls-4" d="M39.5999985,53.9999854c-1,0-1.5-.7000008-1.5-1.4000015v-3.2000008h-.5999985v-.7999992h.5999985v-1.2000008l1.2000008-.2999992v1.5h.9000015v.7999992h-.9000015v3.0999985c0,.4000015.2000008.7000008.5999985.7000008h.2999992v.7999992c-.0999985-.0999947-.2999954.0000038-.5999985.0000038"/>
    <path class="cls-4" d="M43,53.9999854c-1.5,0-2.2000008-.5999985-2.2000008-1.5999985,0-1.4000015,1.4000015-1.7999992,3-2v-.2999992c0-.7000008-.4000015-.9000015-1.0999985-.9000015-.5,0-1,.2000008-1.2999992.2999992l-.2999992-.7000008c.2999992-.2000008,1-.4000015,1.7999992-.4000015,1.0999985,0,2,.5,2,1.7999992v3.2999992c-.4000015.3000031-1.1000023.5000038-1.9000015.5000038M43.7999992,50.9999854c-1.0999985.0999985-1.7999992.4000015-1.7999992,1.4000015,0,.7000008.4000015,1,1.0999985,1,.2999992,0,.5-.0999985.7000008-.0999985v-2.3000031Z"/>
    <path class="cls-4" d="M49,53.8999869v-3.7999992c0-.5-.2000008-.9000015-.9000015-.9000015-.2999992,0-.5999985.0999985-.9000015.2000008v4.4000015h-1.1999969v-7.7999992h1.2000008v2.7000008c.4000015-.2000008.7999992-.2999992,1.2000008-.2999992,1.2999992,0,1.7999992.7999992,1.7999992,1.5999985v3.7999992h-1.2000008v.0999985Z"/>
    <rect class="cls-4" x="51.4000015" y="46.0999838" width="1.2000008" height="7.7999992"/>
    <path class="cls-4" d="M60.2000008,49.9999854v3.5999985c-.4000015.2000008-1.0999985.4000015-2,.4000015-1.5999985,0-2.5999985-.7000008-2.5999985-2,0-1,.7000008-1.7000008,1.5999985-1.9000015h0c-.7999992-.2999992-1.2000008-.7999992-1.2000008-1.5,0-.9000015.7999992-1.5999985,2-1.5999985.7000008,0,1.2000008.2000008,1.5.4000015l-.4000015.7000008c-.2000008-.0999985-.5999985-.2000008-.9000015-.2000008-.7000008,0-1,.2999992-1,.9000015,0,.5999985.5.9000015,1.0999985.9000015.7999992,0,1.7999992-.4000015,2.5999985-.7999992l.4000015.7000008c-.1999969.0999947-.6999969.2999954-1.0999947.3999939M59.0999985,50.1999861c-1.5.2999992-2.2000008.7999992-2.2000008,1.7000008,0,.7999992.4000015,1.2999992,1.4000015,1.2999992.2999992,0,.5999985,0,.7999992-.0999985v-2.9000015Z"/>
    <path class="cls-4" d="M69.4000015,53.8999869c0-.2000008-.4000015-4.5-.4000015-4.5v-.7999992h0s-.0999985.4000015-.1999969.7999992c0,0-1.1999969,4.2999992-1.3000031,4.5h-.6999969c-.0999985-.2000008-1.3000031-4.5-1.3000031-4.5-.0999985-.4000015-.1999969-.7999992-.1999969-.7999992h0v.7999992s-.4000015,4.2999992-.4000015,4.5h-1.0999985l.8000031-6.7999992h1.3000031l1.1999969,4.4000015c.0999985.4000015.1999969.7999992.1999969.7999992h0s0-.2999992.1999969-.7999992l1.3000031-4.4000015h1.3000031l.8000031,6.7999992h-1.5000076Z"/>
    <path class="cls-4" d="M72.5,51.6999861c.0999985,1,.5999985,1.5,1.5,1.5.5999985,0,1.0999985-.0999985,1.3000031-.2999992l.3000031.7999992c-.4000015.2000008-1,.4000015-1.8000031.4000015-1.5,0-2.5-1-2.5-2.7999992,0-1.7000008.9000015-2.7999992,2.3000031-2.7999992s2.1999969.9000015,2.0999985,2.7000008l-3.2000046.4999962ZM73.5999985,49.1999861c-.6999969,0-1.1999969.5999985-1.1999969,1.9000015l2.1999969-.2999992c0-1.2000046-.4000015-1.6000023-1-1.6000023"/>
    <path class="cls-4" d="M78.4000015,53.9999854c-1.0999985,0-1.5-.7000008-1.5-1.4000015v-3.2000008h-.5999985v-.7999992h.5999985v-1.2000008l1.1999969-.2999992v1.5h.9000015v.7999992h-.9000015v3.0999985c0,.4000015.1999969.7000008.5999985.7000008h.3000031v.7999992c-.0999985-.0999947-.3000031.0000038-.5999985.0000038"/>
    <path class="cls-4" d="M81.8000031,53.9999854c-1.5,0-2.1999969-.5999985-2.1999969-1.5999985,0-1.4000015,1.4000015-1.7999992,3-2v-.2999992c0-.7000008-.4000015-.9000015-1.0999985-.9000015-.5,0-1,.2000008-1.3000031.2999992l-.3000031-.7000008c.3000031-.2000008,1-.4000015,1.8000031-.4000015,1.0999985,0,2,.5,2,1.7999992v3.2999992c-.4000015.3000031-1.1000061.5000038-1.9000015.5000038M82.5999985,50.9999854c-1.0999985.0999985-1.8000031.4000015-1.8000031,1.4000015,0,.7000008.4000015,1,1.0999985,1,.3000031,0,.5-.0999985.6999969-.0999985,0,0,0-2.3000031.0000076-2.3000031Z"/>
    <rect class="cls-4" x="84.9000015" y="46.0999838" width="1.1999969" height="7.7999992"/>
    <rect class="cls-4" x="87.4000015" y="46.0999838" width="1.1999969" height="7.7999992"/>
    <rect class="cls-4" x="92.4000015" y="45.4999854" width="1" height="9.9000015"/>
    <path class="cls-4" d="M99,53.9999854c-.9000015,0-1.5999985-.0999985-2-.4000015v-6.2000008c.4000015-.2000008,1.0999985-.4000015,1.9000015-.4000015,1.5999985,0,2.5.7999992,2.5,1.7999992,0,.9000015-.6999969,1.4000015-1.3000031,1.5h0c.5999985.0999985,1.5.7000008,1.5,1.7000008,0,1.4000053-1,2.0000038-2.5999985,2.0000038M98.9000015,47.6999861c-.3000031,0-.5,0-.8000031.0999985v2.2000008h.4000015c1.1999969,0,1.5999985-.4000015,1.5999985-1.2000008.0999985-.7000008-.4000015-1.0999985-1.1999969-1.0999985M98.5999985,50.5999838h-.4000015v2.4000015c.1999969.0999985.5.0999985.8000031.0999985.8000031,0,1.4000015-.2999992,1.4000015-1.2000008-.0999985-.7999992-.5999985-1.2999992-1.8000031-1.2999992"/>
    <path class="cls-4" d="M104.5,53.9999854c-1.5,0-2.1999969-.5999985-2.1999969-1.5999985,0-1.4000015,1.4000015-1.7999992,3-2v-.2999992c0-.7000008-.4000015-.9000015-1.0999985-.9000015-.5,0-1,.2000008-1.3000031.2999992l-.3000031-.7000008c.3000031-.2000008,1-.4000015,1.8000031-.4000015,1.0999985,0,2,.5,2,1.7999992v3.2999992c-.4000015.3000031-1,.5000038-1.9000015.5000038M105.3000031,50.9999854c-1.0999985.0999985-1.8000031.4000015-1.8000031,1.4000015,0,.7000008.4000015,1,1.0999985,1,.3000031,0,.5-.0999985.6999969-.0999985,0,0,0-2.3000031.0000076-2.3000031Z"/>
    <path class="cls-4" d="M109.6999969,53.9999854c-1.4000015,0-2.0999985-.5999985-2.0999985-1.7999992v-3.5999985h1.1999969v3.7000008c0,.5.3000031.9000015.9000015.9000015.3000031,0,.5999985-.0999985.8000031-.2000008v-4.4000015h1.1999969v5c-.3999939.1999969-1.0999985.3999977-2,.3999977"/>
    <rect class="cls-4" x="115.3000031" y="45.4999854" width="1" height="9.9000015"/>
    <polygon class="cls-4" points="123.4000015 53.8999869 123.4000015 50.7999846 121.3000031 50.7999846 121.3000031 53.8999869 120 53.8999869 120 47.0999838 121.3000031 47.0999838 121.3000031 49.9999854 123.4000015 49.9999854 123.4000015 47.0999838 124.6999969 47.0999838 124.6999969 53.8999869 123.4000015 53.8999869"/>
    <path class="cls-4" d="M127.8000031,53.9999854c-1.5,0-2.1999969-.5999985-2.1999969-1.5999985,0-1.4000015,1.4000015-1.7999992,3-2v-.2999992c0-.7000008-.3999939-.9000015-1.0999985-.9000015-.5,0-1,.2000008-1.3000031.2999992l-.3000031-.7000008c.3000031-.2000008,1-.4000015,1.8000031-.4000015,1.0999985,0,2.0000076.5,2.0000076,1.7999992v3.2999992c-.4000092.3000031-1.1000061.5000038-1.9000092.5000038M128.6000061,50.9999854c-1.0999985.0999985-1.8000031.4000015-1.8000031,1.4000015,0,.7000008.4000015,1,1.0999985,1,.2999954,0,.4999924-.0999985.7000046-.0999985v-2.3000031Z"/>
    <path class="cls-4" d="M132.8999939,53.9999854c-1.3999939,0-2.1000061-.5999985-2.1000061-1.7999992v-3.5999985h1.1999969v3.7000008c0,.5.3000031.9000015.8999939.9000015.3000031,0,.6000061-.0999985.8000031-.2000008v-4.4000015h1.1999969v5c-.2999725.1999969-.9999847.3999977-1.9999847.3999977"/>
    <path class="cls-4" d="M137.3000031,53.9999854c-.6000061,0-1.1999969-.2000008-1.5-.4000015l.3000031-.7999992c.1999969.2000008.6000061.2999992,1,.2999992.5,0,.8000031-.2999992.8000031-.7999992s-.1999969-.7000008-.8000031-.9000015c-1-.4000015-1.1999969-.9000015-1.1999969-1.5,0-.9000015.6999969-1.5,1.6999969-1.5.6000061,0,1,.0999985,1.3999939.4000015l-.3000031.7000008c-.1999969-.0999985-.5-.2999992-.8999939-.2999992-.5,0-.8000031.2999992-.8000031.7000008s.3000031.7000008.8000031.7999992c1,.4000015,1.3000031,1,1.3000031,1.5999985.0999908.9000015-.6000061,1.7000008-1.8000031,1.7000008"/>
    <path class="cls-4" d="M141.8000031,53.9999854c-1.1000061,0-1.5-.7000008-1.5-1.4000015v-3.2000008h-.6000061v-.7999992h.6000061v-1.2000008l1.1999969-.2999992v1.5h.8999939v.7999992h-.8999939v3.0999985c0,.4000015.1999969.7000008.6000061.7000008h.3000031v.7999992c-.1000061-.0999947-.3000031.0000038-.6000061.0000038"/>
    <path class="cls-4" d="M144.1000061,51.6999861c.1000061,1,.6000061,1.5,1.5,1.5.6000061,0,1.1000061-.0999985,1.3000031-.2999992l.3000031.7999992c-.3999939.2000008-1,.4000015-1.8000031.4000015-1.5,0-2.5-1-2.5-2.7999992,0-1.7000008.8999939-2.7999992,2.3000031-2.7999992,1.3999939,0,2.1999969.9000015,2.1000061,2.7000008l-3.2000122.4999962ZM145.1999969,49.1999861c-.6999969,0-1.1999969.5999985-1.1999969,1.9000015l2.1999969-.2999992c.1000061-1.2000046-.3000031-1.6000023-1-1.6000023"/>
    <path class="cls-4" d="M150.3000031,53.9999854c-1.1999969,0-2.1000061-1-2.1000061-2.7999992s.8999939-2.7999992,2.1000061-2.7999992c.6999969,0,1,.2000008,1.1999969.4000015l-.3000031.7000008c-.1000061-.0999985-.3999939-.2000008-.6999969-.2000008-.8000031,0-1.1999969.7000008-1.1999969,1.9000015s.3999939,1.9000015,1.1000061,1.9000015c.3000031,0,.6000061-.0999985.6999969-.2000008l.3000031.7000008c-.1000061.1999931-.5000153.3999939-1.1000061.3999939"/>
    <path class="cls-4" d="M155.3000031,53.8999869v-3.7999992c0-.5-.1999969-.9000015-.8999939-.9000015-.3000031,0-.6000061.0999985-.8999939.2000008v4.4000015h-1.1999969v-7.7999992h1.1999969v2.7000008c.3999939-.2000008.8000031-.2999992,1.1999969-.2999992,1.3000031,0,1.8000031.7999992,1.8000031,1.5999985v3.7999992h-1.2000122v.0999985Z"/>
    <path class="cls-4" d="M160.6999969,53.8999869v-3.7999992c0-.4000015-.1999969-.9000015-1-.9000015-.3999939,0-.6000061.0999985-.8000031.0999985v4.5h-1.1999969v-5.0999985c.5-.2000008,1.1999969-.4000015,2.1000061-.4000015,1.6000061,0,2.1000061.7999992,2.1000061,1.5999985v3.7999992h-1.2000122v.2000046Z"/>
    <path class="cls-4" d="M163.6999969,47.5999838c-.3999939,0-.6999969-.2999992-.6999969-.5999985s.3000031-.5999985.6999969-.5999985.6999969.2999992.6999969.5999985c-.0999908.4000015-.3999939.5999985-.6999969.5999985M163.1000061,48.5999838h1.1999969v5.2999992h-1.1999969v-5.2999992Z"/>
    <polygon class="cls-4" points="168.5 53.8999869 166.6999969 51.1999861 166.6999969 51.1999861 166.6999969 53.8999869 165.5 53.8999869 165.5 46.0999838 166.6999969 46.0999838 166.6999969 50.9999854 166.6999969 50.9999854 168.3999939 48.5999838 169.6000061 48.5999838 167.8000031 50.9999854 169.8000031 53.8999869 168.5 53.8999869"/>
  </g>
  <g>
    <path class="cls-1" d="M8.7000122,17.9000015l-.1149902-1.2962646-5.585022,1.3962402c-2.2000122.6000366-3.5,2.7999878-2.9000244,5l3.2000122,11.9000244c.2960205.9867554.8870239,1.8725586,1.7671509,2.3763428l2.2328491-4.6763306c1-2.1000366,3.4000244-2.9000244,5.5-2l8.0219727,3.7579956c.6124878-.2682495,1.1686401-.6540527,1.5817871-1.1802368.7851562-1,1.0962524-2.3110962.696228-3.5777588l-2.2999878-8.7000122-.0144653-.0498047-7.6855469.7498169c-2.2999878.1999512-4.1999512-1.5-4.3999634-3.7000122Z"/>
    <path class="cls-2" d="M8.4000244,37.7999649c-1.2000122.3000488-2.3000488.1000366-3.3000488-.5-.0119629-.0066528-.0209961-.0168457-.0328369-.0236206l-3.0671387,6.423645c-1,2.0999756-.0999756,4.5,2,5.5l11.2000122,5.2000122c2.0999756,1,4.5.0999756,5.5-2l5.2000122-11.2000122c.8999634-2,.0999756-4.5-2-5.4000244l-3.078064-1.4419556c-.2371826.1038818-.4807739.1940308-.7307739.2620239l-11.6911621,3.1799316Z"/>
    <path class="cls-4" d="M7.2999878,32.6000137l-2.2328491,4.6763306c.0118408.0067749.020874.0169678.0328369.0236206,1,.6000366,2.1000366.8000488,3.3000488.5l11.6911621-3.1799316c.25-.0679932.4935913-.1581421.7307739-.2620239l-8.0219727-3.7579956c-2.0999756-.9000244-4.5-.1000366-5.5,2Z"/>
    <path class="cls-3" d="M29.0999756,15.9999771l-1-12.2999878C27.9000244,1.4000015,25.9000244-.2000351,23.7000122-.0000229l-12.2999878,1.1000366c-2.3000488.1999512-4,2.1999512-3.8000488,4.3999634l.9850464,11.1037598.0149536-.0037231,6.3000488-1.7000122c2.1999512-.6000366,4.3999634.7000122,5,2.8999634l.885498,3.0502319,4.614502-.4501953c2.2999878-.2000122,3.8999634-2.2000122,3.6999512-4.4000244Z"/>
    <path class="cls-4" d="M14.9000244,14.9000015l-6.3000488,1.7000122-.0149536.0037231.1149902,1.2962646c.2000122,2.2000122,2.0999756,3.8999634,4.3999634,3.7000122l7.6855469-.7498169-.885498-3.0502319c-.6000366-2.1999512-2.8000488-3.5-5-2.8999634Z"/>
  </g>
</svg>